
<svg id="Calque_1" data-name="Calque 1" xmlns="http://www.w3.org/2000/svg" viewBox="0 0 19.7 27.5"><defs><style>.cls-1{fill:#253d8c;}</style></defs><path id="magazine" class="cls-1" d="M18.6,3.9h-4c-.7-1.6-2-2.7-4.3-3.6C9.7.2,9,.3,9,.9v3H1.1C.1,3.9,0,4.1,0,5V26.6c0,1,.2,1.1,1.1,1.1H18.6c.9,0,1.1-.1,1.1-1.1V5C19.7,4.1,19.5,3.9,18.6,3.9ZM9,26.7H1V4.9H9V17.3c0,.8,0,1.3,1,1.3S13.5,20,13.5,22,11,26.7,9,26.7Zm4.7-7A4.6,4.6,0,0,0,10,17.6V1c1.5.4,3.7,1.8,3.7,3.4Zm4.9,7h-7a5.5,5.5,0,0,0,3-4.7V4.9h4.1V26.7Z" transform="translate(0 -0.3)"/></svg>
