
<svg xmlns="http://www.w3.org/2000/svg" width="34" height="34" viewBox="0 0 34 34">
    <g id="Groupe_3356" data-name="Groupe 3356" transform="translate(-706 -4150.758)">
        <g id="Ellipse_530" data-name="Ellipse 530" transform="translate(706 4150.758)" fill="#fff" stroke="#253d8c" stroke-width="1">
            <circle cx="17" cy="17" r="17" stroke="none"/>
            <circle cx="17" cy="17" r="16.5" fill="none"/>
        </g>
        <path id="Tracé_14407" data-name="Tracé 14407" d="M1113.856,111.78a8.732,8.732,0,0,1,.033-2.622c.165-.713,1.071-4.543,1.071-4.543a3.275,3.275,0,0,1-.276-1.358c0-1.271.739-2.22,1.656-2.22a1.149,1.149,0,0,1,1.156,1.287,18.383,18.383,0,0,1-.757,3.044,1.327,1.327,0,0,0,1.354,1.652c1.624,0,2.875-1.713,2.875-4.185a3.608,3.608,0,0,0-3.82-3.719,3.956,3.956,0,0,0-4.127,3.967,3.554,3.554,0,0,0,.68,2.084.274.274,0,0,1,.062.264l-.251,1.036c-.041.168-.134.2-.306.123a4.1,4.1,0,0,1-1.857-3.542c0-2.884,2.1-5.531,6.04-5.531a5.365,5.365,0,0,1,5.638,5.279c0,3.151-1.987,5.686-4.745,5.686a2.443,2.443,0,0,1-2.095-1.05l-.57,2.173a10.152,10.152,0,0,1-1.137,2.4Z" transform="translate(-394.35 4063.24)" fill="#253d8c"/>
    </g>
</svg>
