
<svg id="Calque_1" data-name="Calque 1" xmlns="http://www.w3.org/2000/svg" viewBox="0 0 684.5 205"><defs><style>.cls-1{fill:#ad2c1e;}.cls-2{fill:#ff2e00;}.cls-3{fill:#253d8c;}</style></defs><g id="logo"><path class="cls-1" d="M156.4,68.6C151,56,132.8,57.7,109.7,57.8h0L91.3,66.6C84.7,70,83,72,83,74.5a6.2,6.2,0,0,0,1.6,4.1c5.5,5.9,23.6,8.8,40.6,12.5,5.4-1.2,13.2-3.4,18.7-6.5C153.8,79,157,72.5,156.4,68.6Z"/><path class="cls-2" d="M156.4,68.6c-.7-4.2-5.9-19.9-5.9-19.9C137,7.2,104.9,30.9,51.2,11.3l3.3,36.6c20,8.8,39,10,55.2,10h0C132.8,57.7,151,56,156.4,68.6Z"/><path class="cls-1" d="M150.1,142.5h0c2.3-9.4-9.3-14.3-23.3-18.4h0a66.3,66.3,0,0,1-26,5.2C77,128.9,55.5,106,55.5,106l-4.2,35.6s21.3,21.2,47.1,21.2c16.6,0,39.6-4.5,49.7-17.3A22.3,22.3,0,0,0,150.1,142.5Z"/><path class="cls-2" d="M150.1,142.5c5.6-9.1,6.5-20.6,7.6-27,.4-2.6.8-5.7.8-5.7,1.2-10-15.4-14.8-33.3-18.7h0c-17-3.7-35.1-6.6-40.6-12.5A6.2,6.2,0,0,1,83,74.5h0s-.9,12.4,3.2,29.9,69.1,17,64,38.1Z"/><path class="cls-2" d="M235.3,108V64.1h23.8v43c0,7.7,4.8,13.8,14.5,13.8s14.3-6.1,14.3-13.8v-43h23.8v43.8c0,19.9-12.1,34.4-38.1,34.4S235.3,127.8,235.3,108Z"/><path class="cls-2" d="M322.9,140.8V64.1h23.4v76.7Z"/><path class="cls-2" d="M500.9,140.8V64.1h58.6V82H524.3V92.4h34.5v17.5H524.3v9.8h35.2v21.1Z"/><path class="cls-2" d="M216.2,94.4c-12.3-4.9-26.4-3.8-27.7-8.6-.7-2.5.8-5.2,5.5-5.7,7.3-.7,19,1.4,25.7,6.5l4.8-19.1c-7.5-4-17.9-5.9-27.3-5.9-21.2,0-32.1,12.5-32.1,25.6,0,28,40.7,18.6,40.7,30.4,0,3.7-5,5-9.4,5-10.4,0-22.7-6.3-28.5-11.8h-.1L162.2,133a67.6,67.6,0,0,0,33,9.3c20.8,0,33.4-9.8,33.4-26.9C228.6,103.7,224.7,97.8,216.2,94.4Z"/><path class="cls-2" d="M620.9,94.4c-12.3-4.9-26.5-3.8-27.7-8.6-.7-2.5.8-5.2,5.5-5.7,7.3-.7,19,1.4,25.7,6.5l4.8-19.1c-7.5-4-17.9-5.9-27.3-5.9-21.2,0-32.1,12.5-32.1,25.6,0,28,40.7,18.6,40.7,30.4,0,3.7-5,5-9.4,5-10.4,0-22.7-6.3-28.5-11.8h-.1L566.9,133a67.3,67.3,0,0,0,33,9.3c20.8,0,33.4-9.8,33.4-26.9C633.3,103.7,629.4,97.8,620.9,94.4Z"/><circle class="cls-2" cx="334.5" cy="41.3" r="12.7"/><path class="cls-2" d="M408.9,94.4c-12.3-4.9-26.4-3.8-27.7-8.6-.7-2.5.8-5.2,5.5-5.7,7.3-.7,19,1.4,25.7,6.5l4.8-19.1c-7.5-4-17.9-5.9-27.3-5.9-21.2,0-32.1,12.5-32.1,25.6,0,28,40.7,18.6,40.7,30.4,0,3.7-5,5-9.4,5-10.4,0-22.7-6.3-28.5-11.8h-.1L354.9,133a67.6,67.6,0,0,0,33,9.3c20.8,0,33.4-9.8,33.4-26.9C421.3,103.7,417.4,97.8,408.9,94.4Z"/><path class="cls-2" d="M478.1,94.4c-12.3-4.9-26.5-3.8-27.8-8.6-.6-2.5.8-5.2,5.6-5.7,7.2-.7,18.9,1.4,25.6,6.5l4.8-19.1c-7.4-4-17.8-5.9-27.3-5.9-21.2,0-32.1,12.5-32.1,25.6,0,28,40.8,18.6,40.8,30.4,0,3.7-5,5-9.4,5-10.5,0-22.8-6.3-28.6-11.8h-.1L424.1,133a67.3,67.3,0,0,0,33,9.3c20.7,0,33.3-9.8,33.3-26.9C490.5,103.7,486.5,97.8,478.1,94.4Z"/></g><path class="cls-3" d="M203.3,181.7H191.6l-2.6,5.7h-1.6l9.3-20.3h1.5l9.3,20.3h-1.6Zm-.5-1.3-5.3-11.7-5.4,11.7Z"/><path class="cls-3" d="M223.7,172.3v15.1h-1.4v-3.2a5.6,5.6,0,0,1-2.2,2.4,6.5,6.5,0,0,1-3.5.9,6.1,6.1,0,0,1-4.6-1.6,6.5,6.5,0,0,1-1.7-4.8v-8.8h1.4V181a5.3,5.3,0,0,0,1.4,3.9,4.7,4.7,0,0,0,3.6,1.3,5.3,5.3,0,0,0,4.1-1.6,5.9,5.9,0,0,0,1.5-4.3v-8Z"/><path class="cls-3" d="M239.4,186.5a5.9,5.9,0,0,1-2.7-2.7,8.5,8.5,0,0,1,0-8,7,7,0,0,1,2.7-2.7,8.4,8.4,0,0,1,3.9-1,7,7,0,0,1,3.3.8,5.5,5.5,0,0,1,2.5,2l-1.1.8a5.5,5.5,0,0,0-2-1.7,5.9,5.9,0,0,0-2.7-.5,5.3,5.3,0,0,0-3.1.8,5.4,5.4,0,0,0-2.3,2.2,7.2,7.2,0,0,0-.7,3.3,7.4,7.4,0,0,0,.7,3.4,6.1,6.1,0,0,0,2.3,2.2,6.2,6.2,0,0,0,3.1.8,6,6,0,0,0,2.7-.6,4.5,4.5,0,0,0,2-1.6l1.1.7a6.4,6.4,0,0,1-2.5,2.1,7,7,0,0,1-3.3.7A7.3,7.3,0,0,1,239.4,186.5Z"/><path class="cls-3" d="M279.6,180.2h-13a7.5,7.5,0,0,0,.9,3.1,6.1,6.1,0,0,0,2.3,2.2,6.6,6.6,0,0,0,3.2.7,8.7,8.7,0,0,0,2.8-.5,6.5,6.5,0,0,0,2.1-1.6l.8,1a6.4,6.4,0,0,1-2.5,1.8,8.3,8.3,0,0,1-3.2.6,8.1,8.1,0,0,1-4.4-1.2,7.6,7.6,0,0,1-2.7-3.2,7.1,7.1,0,0,1-6.8,4.4,7.3,7.3,0,0,1-3.9-1,7,7,0,0,1-2.7-2.7,7.7,7.7,0,0,1-1-4,7.3,7.3,0,0,1,1-3.9,8.1,8.1,0,0,1,2.7-2.8,8.4,8.4,0,0,1,3.9-1,7.2,7.2,0,0,1,6.8,4.5,6.7,6.7,0,0,1,6.5-4.5,7.6,7.6,0,0,1,3.7,1,7.5,7.5,0,0,1,2.6,2.7,8.7,8.7,0,0,1,.9,4Zm-17.4,5.2a6.1,6.1,0,0,0,2.2-2.3,6.7,6.7,0,0,0,.8-3.3,7.3,7.3,0,0,0-.8-3.3,6.6,6.6,0,0,0-2.2-2.2,5.5,5.5,0,0,0-3.1-.8,5.3,5.3,0,0,0-3.1.8,5.2,5.2,0,0,0-2.2,2.2,7.3,7.3,0,0,0-.8,3.3,6.7,6.7,0,0,0,.8,3.3,4.9,4.9,0,0,0,2.2,2.3,6.2,6.2,0,0,0,3.1.8A6.5,6.5,0,0,0,262.2,185.4Zm7.4-11.3a5.8,5.8,0,0,0-2.1,2,7.5,7.5,0,0,0-.9,3h11.6a5.5,5.5,0,0,0-.8-2.9,6,6,0,0,0-2.1-2.1,6.9,6.9,0,0,0-2.9-.7A6.4,6.4,0,0,0,269.6,174.1Z"/><path class="cls-3" d="M297.4,172.3v15.1H296v-3.2a5.6,5.6,0,0,1-2.2,2.4,6.8,6.8,0,0,1-3.5.9,5.8,5.8,0,0,1-6.3-6.4v-8.8h1.4V181a5.7,5.7,0,0,0,1.3,3.9,4.9,4.9,0,0,0,3.7,1.3,5.3,5.3,0,0,0,4.1-1.6,5.9,5.9,0,0,0,1.5-4.3v-8Z"/><path class="cls-3" d="M307.1,173a6.9,6.9,0,0,1,3.6-.9v1.5h-.3a5.4,5.4,0,0,0-4,1.6,6.6,6.6,0,0,0-1.4,4.4v7.9h-1.4V172.3H305v3.3A4.9,4.9,0,0,1,307.1,173Z"/><path class="cls-2" d="M335.9,165.9v21.5h-1.4v-3.6a7.6,7.6,0,0,1-2.5,2.8,7.8,7.8,0,0,1-3.7.9,7.6,7.6,0,0,1-3.9-1,6.2,6.2,0,0,1-2.6-2.7,8.5,8.5,0,0,1,0-8,7.5,7.5,0,0,1,2.6-2.7,8.7,8.7,0,0,1,3.9-1,7.5,7.5,0,0,1,3.6,1,6,6,0,0,1,2.5,2.7v-9.9Zm-4.4,19.5a5.2,5.2,0,0,0,2.1-2.3,5.8,5.8,0,0,0,.8-3.3,6.2,6.2,0,0,0-.8-3.3,5.7,5.7,0,0,0-5.2-3,5.9,5.9,0,0,0-3.2.8,5.6,5.6,0,0,0-2.1,2.2,6.2,6.2,0,0,0-.8,3.3,5.8,5.8,0,0,0,.8,3.3,5.2,5.2,0,0,0,2.1,2.3,6.9,6.9,0,0,0,3.2.8A6.5,6.5,0,0,0,331.5,185.4Z"/><path class="cls-2" d="M354.8,180.2h-13a6.2,6.2,0,0,0,3.2,5.3,6.6,6.6,0,0,0,3.2.7,7.6,7.6,0,0,0,2.7-.5,4.9,4.9,0,0,0,2.1-1.6l.9,1a7.6,7.6,0,0,1-2.5,1.8,8.7,8.7,0,0,1-3.2.6,8,8,0,0,1-4.1-1,6.4,6.4,0,0,1-2.7-2.7,7.7,7.7,0,0,1-1-4,8.3,8.3,0,0,1,.9-3.9,7,7,0,0,1,2.6-2.8,7.3,7.3,0,0,1,7.4,0,7.5,7.5,0,0,1,2.6,2.7,8.7,8.7,0,0,1,.9,4Zm-10.1-6.1a6.4,6.4,0,0,0-2,2,7.5,7.5,0,0,0-.9,3h11.6a4.8,4.8,0,0,0-.9-2.9,5.8,5.8,0,0,0-2-2.1,6.4,6.4,0,0,0-5.8,0Z"/><path class="cls-2" d="M359.7,187a8.9,8.9,0,0,1-2.6-1.4l.7-1.2a6.8,6.8,0,0,0,2.4,1.3,7.3,7.3,0,0,0,3,.5,6.2,6.2,0,0,0,3.4-.7,2.5,2.5,0,0,0,1.1-2.1,2,2,0,0,0-.6-1.5,3.6,3.6,0,0,0-1.5-.8l-2.4-.6a13.7,13.7,0,0,1-2.9-.7,3.9,3.9,0,0,1-1.9-1.2,3.2,3.2,0,0,1-.8-2.3,3.7,3.7,0,0,1,1.5-3,6.7,6.7,0,0,1,4.3-1.2,9.8,9.8,0,0,1,2.9.5,7,7,0,0,1,2.3,1l-.7,1.2a5.1,5.1,0,0,0-2.1-1,6.7,6.7,0,0,0-2.4-.4,5.4,5.4,0,0,0-3.2.8,2.5,2.5,0,0,0-1.1,2.1,1.9,1.9,0,0,0,.6,1.5,3.8,3.8,0,0,0,1.5.9l2.5.6a12.6,12.6,0,0,1,2.8.7,4,4,0,0,1,1.9,1.1,3.3,3.3,0,0,1,.7,2.3,3.7,3.7,0,0,1-1.5,3,8.2,8.2,0,0,1-4.4,1.1A12.9,12.9,0,0,1,359.7,187Z"/><path class="cls-2" d="M382.6,168.4v8.7h10.8v1.3H382.6v9h-1.5V167.1h13.6v1.3Z"/><path class="cls-2" d="M402.2,173a6.9,6.9,0,0,1,3.6-.9v1.5h-.3a5.4,5.4,0,0,0-4,1.6,6.6,6.6,0,0,0-1.4,4.4v7.9h-1.4V172.3H400v3.3A5.6,5.6,0,0,1,402.2,173Z"/><path class="cls-2" d="M419.2,173.6a5.4,5.4,0,0,1,1.5,4.2v9.6h-1.3v-2.7a5,5,0,0,1-2.2,2.1,6.7,6.7,0,0,1-3.3.7,6.2,6.2,0,0,1-4-1.2,3.7,3.7,0,0,1-1.4-3.1,3.9,3.9,0,0,1,1.3-3.1,6.9,6.9,0,0,1,4.3-1.1h5.2v-1.3a4.6,4.6,0,0,0-1.1-3.2,5,5,0,0,0-3.4-1.1,9.3,9.3,0,0,0-2.9.5,10,10,0,0,0-2.3,1.4l-.7-1a7.2,7.2,0,0,1,2.7-1.6,9.2,9.2,0,0,1,3.3-.6A5.8,5.8,0,0,1,419.2,173.6Zm-1.9,11.9a5.2,5.2,0,0,0,2-2.6v-2.8h-5.2a5.4,5.4,0,0,0-3.2.8,2.6,2.6,0,0,0-1,2.2,3,3,0,0,0,1.1,2.4,5.4,5.4,0,0,0,3.1.8A6.3,6.3,0,0,0,417.3,185.5Z"/><path class="cls-2" d="M438.6,173.8a6.5,6.5,0,0,1,1.7,4.8v8.8h-1.5v-8.7a5.3,5.3,0,0,0-1.3-3.9,4.5,4.5,0,0,0-3.6-1.3,5.7,5.7,0,0,0-4.2,1.5,6.1,6.1,0,0,0-1.5,4.3v8.1h-1.5V172.3h1.4v3.2a5.8,5.8,0,0,1,2.4-2.5,6.9,6.9,0,0,1,3.6-.9A6.1,6.1,0,0,1,438.6,173.8Z"/><path class="cls-2" d="M448.3,186.5a7,7,0,0,1-2.7-2.7,8.5,8.5,0,0,1,0-8,7.4,7.4,0,0,1,6.7-3.7,7.3,7.3,0,0,1,3.3.8,5.2,5.2,0,0,1,2.4,2l-1.1.8a5.5,5.5,0,0,0-2-1.7,5.8,5.8,0,0,0-2.6-.5,5.7,5.7,0,0,0-3.2.8,5.2,5.2,0,0,0-2.2,2.2,7.3,7.3,0,0,0-.8,3.3,7.4,7.4,0,0,0,.8,3.4,5.8,5.8,0,0,0,2.2,2.2,6.6,6.6,0,0,0,3.2.8,5.8,5.8,0,0,0,2.6-.6,4.5,4.5,0,0,0,2-1.6l1.1.7a6.1,6.1,0,0,1-2.4,2.1,7.2,7.2,0,0,1-3.3.7A7.7,7.7,0,0,1,448.3,186.5Zm.6,6.5.4-.8a2.9,2.9,0,0,0,1.9.6,3.3,3.3,0,0,0,1.4-.4,1.7,1.7,0,0,0,.5-1.2,1.2,1.2,0,0,0-.5-1,2,2,0,0,0-1.4-.4h-.6l.7-2.6h.9l-.5,1.8a2.9,2.9,0,0,1,1.9.7,2.1,2.1,0,0,1,.6,1.6,2.1,2.1,0,0,1-.8,1.7,3.2,3.2,0,0,1-2.2.7A3.5,3.5,0,0,1,448.9,193Z"/><path class="cls-2" d="M471.8,173.6a5.4,5.4,0,0,1,1.5,4.2v9.6h-1.4v-2.7a5.3,5.3,0,0,1-2.1,2.1,7,7,0,0,1-3.3.7,6,6,0,0,1-4-1.2,3.7,3.7,0,0,1-1.5-3.1,3.9,3.9,0,0,1,1.3-3.1,7.3,7.3,0,0,1,4.4-1.1h5.1v-1.3a4.2,4.2,0,0,0-1.1-3.2,4.9,4.9,0,0,0-3.3-1.1,8.8,8.8,0,0,0-2.9.5,10.8,10.8,0,0,0-2.4,1.4l-.7-1a9.2,9.2,0,0,1,2.7-1.6,9.7,9.7,0,0,1,3.4-.6A5.9,5.9,0,0,1,471.8,173.6Zm-1.9,11.9a5.7,5.7,0,0,0,1.9-2.6v-2.8h-5.1a5.1,5.1,0,0,0-3.2.8,2.6,2.6,0,0,0-1,2.2,2.8,2.8,0,0,0,1.1,2.4,5.2,5.2,0,0,0,3.1.8A6.6,6.6,0,0,0,469.9,185.5Z"/><path class="cls-2" d="M479.2,168.2a1,1,0,1,1,.8.4A.9.9,0,0,1,479.2,168.2Zm.1,4.1h1.4v15.1h-1.4Z"/><path class="cls-2" d="M487.2,187a8.9,8.9,0,0,1-2.6-1.4l.7-1.2a6.8,6.8,0,0,0,2.4,1.3,7.6,7.6,0,0,0,3,.5,5.9,5.9,0,0,0,3.4-.7,2.5,2.5,0,0,0,1.1-2.1,2,2,0,0,0-.6-1.5,3.6,3.6,0,0,0-1.5-.8l-2.4-.6a15.4,15.4,0,0,1-2.9-.7,4.4,4.4,0,0,1-1.9-1.2,3.2,3.2,0,0,1-.7-2.3,3.7,3.7,0,0,1,1.5-3,6.4,6.4,0,0,1,4.2-1.2,9.8,9.8,0,0,1,2.9.5,7,7,0,0,1,2.3,1l-.7,1.2a5.1,5.1,0,0,0-2.1-1,6.7,6.7,0,0,0-2.4-.4,5.6,5.6,0,0,0-3.2.8,2.5,2.5,0,0,0-1.1,2.1,1.9,1.9,0,0,0,.6,1.5,3.8,3.8,0,0,0,1.5.9l2.5.6a12.6,12.6,0,0,1,2.8.7,4,4,0,0,1,1.9,1.1,3.3,3.3,0,0,1,.7,2.3,3.7,3.7,0,0,1-1.5,3,7.9,7.9,0,0,1-4.4,1.1A12.9,12.9,0,0,1,487.2,187Z"/></svg>
