
<svg xmlns="http://www.w3.org/2000/svg" width="29.243" height="29.516" viewBox="0 0 29.243 29.516">
    <path id="tel" d="M956.3,531.5c1.9,1.7,2.7,2.3,2.2,3s-2.5,2.8-2.5,2.8l7.3,7.7,2.6-2.6s.4-.5.8-.3,4.3,4.1,4.6,4.5-1.9,3.9-3.4,4.1-7.7-1.1-12.2-6.3-5.6-10.1-5.3-11.4c.3-1.4,2.2-3.2,2.7-3.6.4-.4,1.2-.1,1.7.4S956.3,531.5,956.3,531.5Z" transform="matrix(0.914, 0.407, -0.407, 0.914, -643.515, -869.335)" fill="none" stroke="#253d8c" stroke-linecap="round" stroke-linejoin="round" stroke-miterlimit="10" stroke-width="1"/>
</svg>
