
<svg xmlns="http://www.w3.org/2000/svg" width="34" height="34" viewBox="0 0 34 34">
    <g id="Groupe_3357" data-name="Groupe 3357" transform="translate(-646 -4150.758)">
        <g id="Ellipse_531" data-name="Ellipse 531" transform="translate(646 4150.758)" fill="#fff" stroke="#253d8c" stroke-width="1">
            <circle cx="17" cy="17" r="17" stroke="none"/>
            <circle cx="17" cy="17" r="16.5" fill="none"/>
        </g>
        <g id="Groupe_2264" data-name="Groupe 2264" transform="translate(655 4159.758)">
            <path id="Tracé_6464" data-name="Tracé 6464" d="M1098.9,100.947c-.13-2.887-1.736-4.5-4.627-4.627-.85-.04-1.121-.049-3.283-.049s-2.431.009-3.281.049c-2.891.133-4.5,1.736-4.629,4.627-.038.85-.048,1.121-.048,3.281s.009,2.432.048,3.281c.133,2.89,1.738,4.5,4.629,4.628.85.038,1.12.048,3.281.048s2.432-.009,3.283-.048c2.886-.133,4.5-1.736,4.627-4.628.038-.849.048-1.119.048-3.281S1098.933,101.8,1098.9,100.947Zm-1.431,6.5c-.1,2.139-1.1,3.164-3.263,3.262-.839.037-1.09.046-3.216.046s-2.377-.008-3.215-.046c-2.162-.1-3.163-1.126-3.263-3.262-.037-.838-.047-1.09-.047-3.215s.009-2.377.047-3.215c.1-2.142,1.1-3.164,3.263-3.262.838-.038,1.09-.045,3.215-.045s2.377.008,3.216.046c2.158.1,3.163,1.121,3.263,3.261.037.84.045,1.09.045,3.215S1097.5,106.6,1097.464,107.443Z" transform="translate(-1083.028 -96.271)" fill="#253d8c"/>
            <path id="Tracé_6465" data-name="Tracé 6465" d="M1090.033,99.19a4.086,4.086,0,1,0,4.086,4.086A4.086,4.086,0,0,0,1090.033,99.19Zm0,6.738a2.652,2.652,0,1,1,2.654-2.652A2.652,2.652,0,0,1,1090.033,105.928Z" transform="translate(-1082.076 -95.319)" fill="#253d8c"/>
            <path id="Tracé_6466" data-name="Tracé 6466" d="M1092.465,98.349a.955.955,0,1,0,.956.955A.955.955,0,0,0,1092.465,98.349Z" transform="translate(-1080.26 -95.593)" fill="#253d8c"/>
        </g>
    </g>
</svg>
