
<svg xmlns="http://www.w3.org/2000/svg" width="34" height="34" viewBox="0 0 34 34">
    <g id="Groupe_3355" data-name="Groupe 3355" transform="translate(-765 -4150.758)">
        <g id="Ellipse_532" data-name="Ellipse 532" transform="translate(765 4150.758)" fill="#fff" stroke="#253d8c" stroke-width="1">
            <circle cx="17" cy="17" r="17" stroke="none"/>
            <circle cx="17" cy="17" r="16.5" fill="none"/>
        </g>
        <path id="Tracé_14408" data-name="Tracé 14408" d="M-321.735,196.048a6.751,6.751,0,0,1-1.937.53,3.375,3.375,0,0,0,1.483-1.866,6.709,6.709,0,0,1-2.14.819,3.362,3.362,0,0,0-2.461-1.064,3.374,3.374,0,0,0-3.286,4.138,9.569,9.569,0,0,1-6.949-3.523,3.376,3.376,0,0,0,1.043,4.5,3.387,3.387,0,0,1-1.527-.421,3.373,3.373,0,0,0,2.7,3.347,3.373,3.373,0,0,1-1.522.059,3.373,3.373,0,0,0,3.15,2.341,6.776,6.776,0,0,1-4.993,1.4A9.545,9.545,0,0,0-333,207.822a9.535,9.535,0,0,0,9.583-10.029A6.9,6.9,0,0,0-321.735,196.048Z" transform="translate(1112.172 3967.291)" fill="#253d8c"/>
    </g>
</svg>
