
<svg xmlns="http://www.w3.org/2000/svg" width="62.581" height="26.768" viewBox="0 0 62.581 26.768">
    <g id="Groupe_891" data-name="Groupe 891" transform="translate(-379.816 -309.948)">
        <path id="Tracé_7645" data-name="Tracé 7645" d="M395.284,310.448H418.31V333.2H395.284" transform="translate(7.315 0)" fill="none" stroke="#253d8c" stroke-linecap="round" stroke-linejoin="round" stroke-width="1"/>
        <path id="Tracé_7646" data-name="Tracé 7646" d="M425.567,329.894H413.638V314.913h5.826l6.1,7.629Z" transform="translate(16.329 2.193)" fill="none" stroke="#253d8c" stroke-linecap="round" stroke-linejoin="round" stroke-width="1"/>
        <circle id="Ellipse_421" data-name="Ellipse 421" cx="3.296" cy="3.296" r="3.296" transform="translate(432.774 329.623)" stroke-width="1" stroke="#253d8c" stroke-linecap="round" stroke-linejoin="round" fill="#fff"/>
        <circle id="Ellipse_422" data-name="Ellipse 422" cx="3.296" cy="3.296" r="3.296" transform="translate(410.816 329.623)" stroke-width="1" stroke="#253d8c" stroke-linecap="round" stroke-linejoin="round" fill="#fff"/>
        <path id="Tracé_7647" data-name="Tracé 7647" d="M380.391,324.686a8.489,8.489,0,0,0,3.612.075,2.893,2.893,0,0,0,2.255-2.531,1.418,1.418,0,0,0-.48-1.136,1.375,1.375,0,0,0-.726-.261,2.367,2.367,0,0,0-2.372,2.046,3.468,3.468,0,0,0,1.3,3.042,6.735,6.735,0,0,0,3.143,1.338,12.953,12.953,0,0,0,14.507-8.133,5.418,5.418,0,0,0,.434-2.219,2.54,2.54,0,0,0-1-1.961,2.694,2.694,0,0,0-1.488-.419,4.2,4.2,0,0,0-3.6,1.994,2.605,2.605,0,0,0-.251,1.9c.784,3.761,9.086,1.771,12.553,1.06" transform="translate(0 2.003)" fill="none" stroke="#253d8c" stroke-linecap="round" stroke-linejoin="round" stroke-width="1"/>
    </g>
</svg>
