
<svg xmlns="http://www.w3.org/2000/svg" viewBox="0 0 434.3 318.15"><defs><style>.cls-1{fill:#ff2e00;}.cls-2{fill:#ad2c1e;}</style></defs><title>Plan de travail 1</title><g id="logo"><circle class="cls-1" cx="352.27" cy="232.43" r="16.41"/><path class="cls-1" d="M208.78,142.87c0-5.32,6.41-25.53,39.84-28.86h0c28.33-3.32,63.36,6.19,76.18,21.78L333.7,97C317.18,82.75,288.8,72.1,261,74.39c-22.05,1.81-37.24,6.42-45.89,33.46-6,21.3-6.31,35-6.31,35Z"/><path class="cls-2" d="M324.49,164.52C313.93,154.05,296,149.11,280.22,144c-17-5.54-31.53-11.32-32.11-24.42a21.22,21.22,0,0,1,.51-5.52h0c-33.43,3.33-39.84,23.54-39.84,28.86,0,41.78,81.33,30.26,83.71,66.63C323,205,339.26,184.3,324.49,164.52Z"/><path class="cls-1" d="M205.55,229.85l10.2-43.07s28.67,23.5,63.88,23.61c38.6.13,61.62-23.5,44.82-45.92,28.32,23.33,5.12,88.06-54,88.06C250.82,252.53,223.82,242.62,205.55,229.85Z"/><path class="cls-2" d="M195.45,136.35c-6.65-15.52-29.07-13.47-57.66-13.3h0c-8.75,4.18-20.3,9.61-22.64,10.8-8.23,4.19-10.33,6.73-10.33,9.75a8,8,0,0,0,2,5.07c6.75,7.23,29.17,10.85,50.1,15.42,6.69-1.53,16.26-4.17,23.11-8.07C192.19,149.14,196.21,141.17,195.45,136.35Z"/><path class="cls-1" d="M195.45,136.35c-.86-5.22-7.3-24.61-7.3-24.61C171.57,60.6,132,89.85,65.62,65.62l4.06,45.13c24.65,10.87,48.14,12.42,68.11,12.3h0C166.39,122.88,188.8,120.83,195.45,136.35Z"/><path class="cls-2" d="M187.74,227.58v-.07c2.82-11.6-11.54-17.58-28.78-22.72h0a81.3,81.3,0,0,1-32.17,6.45C97.43,210.68,71,182.47,71,182.47l-5.25,44S92,252.53,123.9,252.53c20.5,0,48.88-5.51,61.28-21.27A38.41,38.41,0,0,0,187.74,227.58Z"/><path class="cls-1" d="M187.74,227.58c6.86-11.27,7.95-25.5,9.3-33.39.46-3.16,1-7.07,1-7.07,1.51-12.33-18.95-18.21-41.08-23h0c-20.93-4.57-43.35-8.19-50.1-15.42a8,8,0,0,1-2-5.07h0s-1.08,15.32,4,36.87c5.48,23.27,85.23,21.06,78.93,47Z"/></g></svg>
