<svg xmlns="http://www.w3.org/2000/svg" viewBox="0 0 684.48 253.32"><defs><style>.cls-1{fill:#ad2c1e;}.cls-2{fill:#ff2e00;}</style></defs><title>Plan de travail 1</title><g id="logo"><path class="cls-1" d="M156.62,108.24c-5.39-12.57-23.56-10.91-46.73-10.78h0c-7.09,3.39-16.45,7.8-18.34,8.76-6.67,3.39-8.37,5.45-8.37,7.89a6.38,6.38,0,0,0,1.64,4.11c5.47,5.87,23.64,8.8,40.6,12.5,5.42-1.24,13.18-3.38,18.73-6.54C154,118.6,157.23,112.15,156.62,108.24Z"/><path class="cls-2" d="M156.62,108.24c-.7-4.23-5.92-19.94-5.92-19.94-13.44-41.45-45.53-17.74-99.29-37.37L54.7,87.5c20,8.81,39,10.06,55.19,10h0C133.06,97.33,151.23,95.67,156.62,108.24Z"/><path class="cls-1" d="M150.37,182.17v-.06c2.28-9.4-9.36-14.25-23.33-18.41h0A65.91,65.91,0,0,1,101,168.93c-23.81-.45-45.25-23.32-45.25-23.32l-4.25,35.64s21.29,21.14,47.15,21.14c16.61,0,39.61-4.47,49.66-17.24A30.46,30.46,0,0,0,150.37,182.17Z"/><path class="cls-2" d="M150.37,182.17c5.56-9.13,6.44-20.66,7.53-27.06.38-2.56.81-5.73.81-5.73,1.22-10-15.36-14.75-33.29-18.66h0c-17-3.7-35.13-6.63-40.6-12.5a6.38,6.38,0,0,1-1.64-4.11h0S82.3,126.53,86.41,144c4.45,18.86,69.08,17.07,64,38.12Z"/><path class="cls-2" d="M235.54,147.6V103.71H259.3v43.05c0,7.67,4.87,13.79,14.49,13.79s14.37-6.12,14.37-13.79v-43h23.76v43.77c0,19.9-12.06,34.41-38.13,34.41S235.54,167.38,235.54,147.6Z"/><path class="cls-2" d="M323.11,180.45V103.77h23.41v76.68Z"/><path class="cls-2" d="M501.12,180.45V103.77h58.64v17.81H524.53V132H559v17.53H524.53v9.81h35.23v21.1Z"/><path class="cls-2" d="M216.47,134.05c-12.31-4.92-26.49-3.79-27.77-8.66-.63-2.42.79-5.16,5.57-5.64,7.25-.72,18.92,1.38,25.64,6.47l4.8-19.07c-7.47-4-17.86-5.91-27.29-5.91-21.2,0-32.1,12.51-32.1,25.61,0,28,40.74,18.57,40.74,30.38,0,3.72-5,5-9.42,5-10.43,0-22.73-6.28-28.53-11.84l-.1.15-5.56,22.11a68.42,68.42,0,0,0,33,9.28c20.75,0,33.38-9.85,33.38-26.89C228.86,143.31,224.91,137.42,216.47,134.05Z"/><path class="cls-2" d="M621.16,134.05c-12.31-4.92-26.49-3.79-27.77-8.66-.63-2.42.79-5.16,5.57-5.64,7.25-.72,18.92,1.38,25.64,6.47l4.8-19.07c-7.47-4-17.86-5.91-27.28-5.91-21.21,0-32.11,12.51-32.11,25.61,0,28,40.74,18.57,40.74,30.38,0,3.72-5,5-9.42,5-10.43,0-22.73-6.28-28.53-11.84l-.1.15-5.56,22.11a68.42,68.42,0,0,0,33,9.28c20.75,0,33.38-9.85,33.38-26.89C633.55,143.31,629.61,137.42,621.16,134.05Z"/><circle class="cls-2" cx="334.71" cy="80.96" r="12.73"/><path class="cls-2" d="M409.17,134.05c-12.31-4.92-26.49-3.79-27.77-8.66-.63-2.42.79-5.16,5.57-5.64,7.25-.72,18.92,1.38,25.64,6.47l4.8-19.07c-7.47-4-17.86-5.91-27.29-5.91-21.2,0-32.1,12.51-32.1,25.61,0,28,40.74,18.57,40.74,30.38,0,3.72-5,5-9.42,5-10.43,0-22.73-6.28-28.53-11.84l-.1.15-5.56,22.11a68.42,68.42,0,0,0,33,9.28c20.75,0,33.38-9.85,33.38-26.89C421.56,143.31,417.61,137.42,409.17,134.05Z"/><path class="cls-2" d="M478.31,134.05c-12.31-4.92-26.48-3.79-27.76-8.66-.64-2.42.79-5.16,5.56-5.64,7.26-.72,18.92,1.38,25.64,6.47l4.81-19.07c-7.48-4-17.87-5.91-27.29-5.91-21.21,0-32.1,12.51-32.1,25.61,0,28,40.74,18.57,40.74,30.38,0,3.72-5,5-9.43,5-10.42,0-22.73-6.28-28.52-11.84l-.1.15-5.56,22.11a68.39,68.39,0,0,0,33,9.28c20.74,0,33.37-9.85,33.37-26.89C490.7,143.31,486.76,137.42,478.31,134.05Z"/></g></svg>
