
<svg width="97" height="97" viewBox="0 0 97 97" fill="none" xmlns="http://www.w3.org/2000/svg">
    <path d="M52.778 32.112C52.6219 31.7412 52.2587 31.5 51.8563 31.5H36.3102C35.9078 31.5 35.5446 31.7412 35.3885 32.112L33.1296 37.478C33.1295 37.4783 33.1294 37.4785 33.1292 37.4788C33.0355 37.6994 32.8017 37.9091 32.3333 37.9091H26.0063C22.4978 37.9091 19.5833 40.3298 19.5833 43.7159V62.9432C19.5833 66.3293 22.4978 68.75 26.0063 68.75H62.1602C65.6687 68.75 68.5833 66.3293 68.5833 62.9432V43.7159C68.5833 40.3298 65.6687 37.9091 62.1602 37.9091H55.8333C55.4267 37.9091 55.1213 37.6764 55.0372 37.4786C55.0371 37.4784 55.037 37.4782 55.0369 37.478L52.778 32.112Z" stroke="black" stroke-width="2" stroke-miterlimit="10" stroke-linejoin="round"/>
    <circle cx="44.0833" cy="52.0833" r="10.75" stroke="black" stroke-width="2"/>
    <path d="M59.7501 9L84.1668 9C85.8236 9 87.1667 10.3431 87.1667 12L87.1667 36.4167" stroke="black" stroke-width="2"/>
    <path d="M28.4167 9L4 9C2.34314 9 1 10.3431 1 12L0.999999 36.4167" stroke="black" stroke-width="2"/>
    <path d="M87.1668 67.7501L87.1667 92.1668C87.1667 93.8236 85.8236 95.1668 84.1667 95.1668L59.7501 95.1668" stroke="black" stroke-width="2"/>
    <path d="M28.4167 95.1668L4 95.1668C2.34314 95.1668 1 93.8236 1 92.1668L1 67.7501" stroke="black" stroke-width="2"/>
    <circle cx="87" cy="10" r="10" fill="#E30E2E"/>
</svg>
